<?xml version="1.0" encoding="utf-8"?>
<svg width="85px" height="85px" viewBox="0 0 85 85" version="1.1" xmlns:xlink="http://www.w3.org/1999/xlink" xmlns="http://www.w3.org/2000/svg">
  <g id="Group-3" transform="translate(1.1386719 1.1386719)">
    <path d="M41 82C63.6437 82 82 63.6437 82 41C82 31.7937 62.8667 21.8667 62.8667 21.8667C62.8667 21.8667 54.4373 0 41 0C18.3563 0 0 18.3563 0 41C0 63.6437 18.3563 82 41 82Z" id="Oval-2" fill="#00F3AB" fill-rule="evenodd" stroke="none" />
    <g id="Group-2" transform="matrix(-0.70710677 -0.70710677 0.70710677 -0.70710677 36.002304 74.65747)">
      <path d="M0 0L10.9333 0L10.9333 35.5333L0 35.5333L0 0Z" transform="translate(10.933333 0)" id="Rectangle-5" fill="#23292F" fill-rule="evenodd" stroke="none" />
      <path d="M0 0L32.8 0L16.4 21.8667L0 0Z" transform="translate(0 30.066668)" id="Triangle-Copy" fill="#23292F" fill-rule="evenodd" stroke="none" />
    </g>
  </g>
</svg>