<?xml version="1.0" encoding="utf-8"?>
<svg width="84px" height="84px" viewBox="0 0 84 84" version="1.1" xmlns:xlink="http://www.w3.org/1999/xlink" xmlns="http://www.w3.org/2000/svg">
  <g id="Group-2-Copy-54" transform="translate(0.56933594 0.56933594)">
    <path d="M40.6928 82C63.1669 82 81.3857 63.6437 81.3857 41C81.3857 18.3563 63.1669 0 40.6928 0C18.2188 0 0 18.3563 0 41C0 63.6437 18.2188 82 40.6928 82Z" id="Oval-5-Copy-2" fill="#FFFFFF" fill-rule="evenodd" stroke="#EEEEEE" stroke-width="1.1388888" />
    <path d="M33.3323 27.8006L38.9719 0.307968L32.6148 0L28.0039 26.6089C28.0978 26.6625 28.1464 26.6929 28.1464 26.6929C28.1464 26.6929 30.9184 27.6542 33.3323 27.8006ZM32.4231 32.2333C30.113 31.9653 28.1464 31.198 28.1464 31.198C28.1464 31.198 27.9465 31.1413 27.5834 31.0533L27.5209 34.1868L26.443 30.8004C25.305 30.5689 23.6787 30.2966 21.8183 30.1597L24.7137 39.4199L30.9489 39.4199L32.4231 32.2333ZM20.0742 24.4505L19.1264 20.9538L18.2003 24.4886C16.6635 24.6037 15.2951 24.9107 14.1669 25.2603L17.6419 13.3749L20.9619 13.3749L24.6836 25.2231C23.4087 24.8375 21.8392 24.5112 20.0742 24.4505ZM12.6059 30.7848C13.6116 30.5826 14.9803 30.3525 16.5461 30.2097L13.809 39.4199L7.78985 39.4199L6.3842 32.3067C8.8893 32.1638 10.8255 31.198 10.8255 31.198C10.8255 31.198 11.0674 31.1294 11.5023 31.026L11.6767 34.1868L12.6059 30.7848ZM11.1938 26.484L5.52793 0L0 0L5.49661 27.8151C5.5895 27.8178 5.68189 27.8192 5.77362 27.8192C8.39243 27.8192 10.8255 26.6929 10.8255 26.6929C10.8255 26.6929 10.9531 26.6133 11.1938 26.484Z" transform="translate(21.705883 18.088236)" id="Combined-Shape-Copy" fill="#23292F" fill-rule="evenodd" stroke="none" />
  </g>
</svg>