<?xml version="1.0" encoding="utf-8"?>
<svg width="84px" height="84px" viewBox="0 0 84 84" version="1.1" xmlns:xlink="http://www.w3.org/1999/xlink" xmlns="http://www.w3.org/2000/svg">
  <g id="Group-2-Copy-50" transform="translate(0.56933594 0.56933594)">
    <path d="M40.6928 82C63.1669 82 81.3857 63.6437 81.3857 41C81.3857 18.3563 63.1669 0 40.6928 0C18.2188 0 0 18.3563 0 41C0 63.6437 18.2188 82 40.6928 82Z" id="Oval-5-Copy-2" fill="#00F3AB" fill-rule="evenodd" stroke="none" />
    <g id="Group-25" transform="translate(25.32353 14.470589)">
      <path d="M15.0735 0L30.1471 27.3922L15.0735 37.3824L0 27.7145L15.0735 0Z" id="Rectangle-14" fill="#23292F" fill-rule="evenodd" stroke="none" />
      <path d="M15.6765 0L15.6765 20.947L15.6765 37.3824L0 27.7145L15.6765 0Z" id="Rectangle-14-Copy" fill="#23292F" fill-rule="evenodd" stroke="none" />
      <path d="M15.0735 0L30.1471 6.33088L15.0735 15.6765L0 6.63235L15.0735 0Z" transform="translate(0 21.705883)" id="Rectangle-18" fill="#23292F" fill-rule="evenodd" stroke="none" />
      <path d="M15.6765 0L15.6765 6.33088L15.6765 15.6765L0 6.63235L15.6765 0Z" transform="translate(0 21.705883)" id="Rectangle-18-Copy" fill="#23292F" fill-rule="evenodd" stroke="none" />
      <path d="M0 0L15.0735 9.54657L30.1471 0L15.0735 22.9118L0 0Z" transform="translate(0 30.147058)" id="Rectangle-28" fill="#23292F" fill-rule="evenodd" stroke="none" />
      <path d="M0 0L15.6765 9.54657L15.6765 22.9118L0 0Z" transform="translate(0 30.147058)" id="Rectangle-28-Copy" fill="#23292F" fill-rule="evenodd" stroke="none" />
    </g>
    <path d="M0 19.0986L0 6.24609C0.0800785 2.08201 2.16209 0 6.24609 0L12.252 0L12.252 2.7627L7.56738 2.7627C5.40526 2.7627 4.28418 3.84374 4.2041 6.00586L4.2041 19.0986L0 19.0986Z" transform="translate(13.666667 10.25)" id="r" fill="#FFFFFF" fill-rule="evenodd" stroke="none" />
  </g>
</svg>