<?xml version="1.0" encoding="utf-8"?>
<svg width="171px" height="65px" viewBox="0 0 171 65" version="1.1" xmlns:xlink="http://www.w3.org/1999/xlink" xmlns="http://www.w3.org/2000/svg">
  <g id="Group-20">
    <path d="M29.1102 24.3402L34.1053 0.266447L28.542 0L24.4674 23.2471C24.5753 23.3097 24.6316 23.3459 24.6316 23.3459C24.6316 23.3459 27.012 24.196 29.1102 24.3402ZM28.2829 28.3278C26.3011 28.0768 24.6316 27.406 24.6316 27.406C24.6316 27.406 24.4536 27.354 24.1307 27.2736L24.0842 29.5777L23.279 27.0769C22.3029 26.8676 20.8693 26.612 19.2159 26.4797L21.6276 34.1053L27.0841 34.1053L28.2829 28.3278ZM17.6147 21.3267L16.738 18.1288L15.8809 21.363C14.5252 21.4718 13.3207 21.7557 12.3324 22.0758L15.4388 11.5717L18.3442 11.5717L21.6714 22.0433C20.5545 21.6898 19.1725 21.387 17.6147 21.3267ZM10.9147 27.0581C11.7799 26.8753 12.9801 26.6619 14.3627 26.5266L12.0846 34.1053L6.81708 34.1053L5.6766 28.3995C7.82525 28.2528 9.47368 27.406 9.47368 27.406C9.47368 27.406 9.69368 27.3417 10.0884 27.2455L10.2185 29.5777L10.9147 27.0581ZM9.84319 23.1316L4.83763 0L0 0L4.86892 24.3588C4.93045 24.3602 4.99171 24.3609 5.05263 24.3609C7.34441 24.3609 9.47368 23.3459 9.47368 23.3459C9.47368 23.3459 9.60203 23.2634 9.84319 23.1316Z" transform="translate(0 17.469473)" id="Combined-Shape" fill="#00F3AB" fill-rule="evenodd" stroke="none" />
    <g id="Group-3" transform="translate(57.562107 0)">
      <g id="StaFi" fill="#FFFFFF" transform="translate(0.5431579 0.5431579)">
        <path d="M107.732 18.9786Q108.578 18.0164 108.578 16.7079Q108.578 15.5789 107.847 14.7451Q107.116 13.9112 105.859 13.9112Q104.319 13.9112 103.447 14.8605Q102.574 15.8099 102.574 17.0928Q102.574 18.273 103.306 19.1069Q104.037 19.9408 105.345 19.9408Q106.885 19.9408 107.732 18.9786ZM24.3237 40.1336Q24.3237 49.627 11.1099 49.627Q6.28618 49.627 2.54013 48.5237L3.43816 44.4954Q7.74868 45.9836 11.623 45.9836Q20.3467 45.9836 20.3467 41.0572Q20.3467 38.5684 18.0888 36.798Q16.575 35.6178 12.1362 33.6421Q7.46645 31.5638 5.59342 29.8191Q3.00197 27.4072 3.00197 23.7638Q3.00197 19.9664 5.64474 17.5803Q8.59539 14.9118 13.9836 14.9118Q20.0901 14.9118 22.348 15.7072L21.7322 19.7868Q17.8322 18.5553 13.4447 18.5553Q6.85066 18.5553 6.85066 22.9684Q6.85066 25.098 8.74934 26.5349Q9.98092 27.4329 14.1888 29.2546Q18.9868 31.3329 21.1164 33.2059Q24.3237 36.0283 24.3237 40.1336ZM97.7778 15.3737L97.5726 19.1967Q90.7476 18.8888 82.1009 18.8888Q82.4088 23.148 82.4088 30.6401Q88.4384 30.6401 94.1344 30.4349L94.1344 34.1553Q88.6436 33.95 82.4088 33.95Q82.4088 43.9822 82.691 48.7803L78.0213 48.7803Q78.3805 40.8263 78.3805 31.2303Q78.3805 22.1987 78.0213 15.3737L97.7778 15.3737ZM44.8742 45.2395L44.5663 48.575Q42.5393 49.3191 40.7433 49.3191Q36.1248 49.3191 34.4314 46.9714Q32.738 44.6237 32.738 38.5684Q32.738 34.6428 32.7893 28.3309Q31.3525 28.3309 28.5558 28.4849L28.7097 24.7645Q31.1472 24.9184 33.0716 24.9184Q33.0716 23.379 33.3281 17.6059L37.3564 17.1954Q36.9202 22.5836 36.9202 24.9184Q39.4347 24.9184 44.3097 24.6618L44.1301 28.4849Q39.5117 28.3309 36.715 28.3309Q36.6637 32.2053 36.6637 37.0546Q36.6637 42.3401 37.7798 44.0464Q38.8959 45.7526 41.9235 45.7526Q42.9242 45.7526 44.8742 45.2395ZM65.476 48.9342L69.5043 48.7803Q68.8115 45.1368 68.8115 40.4671Q68.8115 39.4151 68.927 36.2464Q69.0425 33.0776 69.0425 31.8717Q69.0425 27.3303 66.5536 25.4444Q64.0648 23.5586 59.4977 23.5586Q54.4944 23.5586 50.6457 24.6618L50.2096 28.2026Q54.1096 27.202 58.1379 27.202Q61.5504 27.202 63.2309 28.2539Q64.9115 29.3059 64.9115 32.4618Q64.9115 33.2572 64.8346 33.873Q55.7773 34.0013 52.4418 36.4003Q49.1063 38.7993 49.1063 42.7507Q49.1063 45.9579 51.2359 47.6898Q53.3655 49.4217 56.3161 49.4217Q61.7556 49.4217 64.9115 46.548L65.1681 46.548Q65.1681 47.677 65.476 48.9342ZM102.857 48.7803L107.501 48.7803Q107.141 43.2125 107.141 37.0546Q107.141 29.2803 107.449 23.9178L102.318 24.6105Q103.216 29.6395 103.216 37.0546Q103.216 43.6487 102.857 48.7803ZM64.8346 36.798Q64.8346 39.9026 64.9629 43.8026Q62.4484 45.9066 58.2148 45.9066Q53.2885 45.9066 53.2885 42.4171Q53.2885 38.7993 57.4964 37.5164Q60.0109 36.798 64.8346 36.798Z" />
      </g>
    </g>
  </g>
</svg>