<?xml version="1.0" encoding="utf-8"?>
<svg width="213px" height="82px" viewBox="0 0 213 82" version="1.1" xmlns:xlink="http://www.w3.org/1999/xlink" xmlns="http://www.w3.org/2000/svg">
  <g id="Group-20">
    <path d="M36.3878 30.4253L42.6316 0.333059L35.6775 0L30.5842 29.0588C30.7192 29.1371 30.7895 29.1823 30.7895 29.1823C30.7895 29.1823 33.765 30.245 36.3878 30.4253ZM35.3536 35.4097C32.8763 35.096 30.7895 34.2575 30.7895 34.2575C30.7895 34.2575 30.567 34.1925 30.1633 34.0919L30.1052 36.9722L29.0988 33.8461C27.8786 33.5845 26.0866 33.265 24.0199 33.0997L27.0345 42.6316L33.8551 42.6316L35.3536 35.4097ZM22.0184 26.6584L20.9225 22.661L19.8511 26.7037C18.1565 26.8397 16.6509 27.1946 15.4155 27.5948L19.2985 14.4647L22.9303 14.4647L27.0892 27.5541C25.6932 27.1122 23.9656 26.7337 22.0184 26.6584ZM13.6434 33.8226C14.7249 33.5942 16.2251 33.3274 17.9534 33.1582L15.1058 42.6316L8.52136 42.6316L7.09575 35.4994C9.78157 35.316 11.8421 34.2575 11.8421 34.2575C11.8421 34.2575 12.1171 34.1772 12.6105 34.0569L12.7732 36.9722L13.6434 33.8226ZM12.304 28.9145L6.04703 0L0 0L6.08615 30.4485C6.16306 30.4502 6.23963 30.4511 6.31579 30.4511C9.18052 30.4511 11.8421 29.1823 11.8421 29.1823C11.8421 29.1823 12.0025 29.0792 12.304 28.9145Z" transform="translate(0 21.836842)" id="Combined-Shape" fill="#00F3AB" fill-rule="evenodd" stroke="none" />
    <g id="Group-3" transform="translate(71.95263 0)">
      <g id="StaFi" fill="#FFFFFF" transform="translate(0.6789474 0.6789474)">
        <path d="M134.665 23.7233Q135.723 22.5206 135.723 20.8849Q135.723 19.4737 134.809 18.4313Q133.895 17.389 132.323 17.389Q130.399 17.389 129.308 18.5757Q128.218 19.7623 128.218 21.366Q128.218 22.8413 129.132 23.8836Q130.046 24.926 131.682 24.926Q133.606 24.926 134.665 23.7233ZM30.4046 50.1669Q30.4046 62.0337 13.8873 62.0337Q7.85773 62.0337 3.17516 60.6546L4.2977 55.6192Q9.68586 57.4794 14.5288 57.4794Q25.4334 57.4794 25.4334 51.3215Q25.4334 48.2105 22.611 45.9975Q20.7187 44.5222 15.1702 42.0526Q9.33306 39.4548 6.99178 37.2738Q3.75247 34.259 3.75247 29.7048Q3.75247 24.9581 7.05592 21.9753Q10.7442 18.6398 17.4794 18.6398Q25.1127 18.6398 27.935 19.634L27.1653 24.7336Q22.2903 23.1941 16.8059 23.1941Q8.56332 23.1941 8.56332 28.7105Q8.56332 31.3725 10.9367 33.1686Q12.4762 34.2911 17.736 36.5683Q23.7336 39.1661 26.3956 41.5074Q30.4046 45.0354 30.4046 50.1669ZM122.222 19.2171L121.966 23.9959Q113.434 23.611 102.626 23.611Q103.011 28.935 103.011 38.3002Q110.548 38.3002 117.668 38.0436L117.668 42.6941Q110.805 42.4375 103.011 42.4375Q103.011 54.9778 103.364 60.9753L97.5266 60.9753Q97.9756 51.0329 97.9756 39.0378Q97.9756 27.7484 97.5266 19.2171L122.222 19.2171ZM56.0927 56.5493L55.7079 60.7187Q53.1742 61.6488 50.9291 61.6488Q45.1561 61.6488 43.0393 58.7142Q40.9225 55.7796 40.9225 48.2105Q40.9225 43.3035 40.9867 35.4137Q39.1906 35.4137 35.6947 35.6061L35.8871 30.9556Q38.934 31.148 41.3394 31.148Q41.3394 29.2237 41.6602 22.0074L46.6955 21.4942Q46.1503 28.2294 46.1503 31.148Q49.2934 31.148 55.3871 30.8273L55.1626 35.6061Q49.3896 35.4137 45.8937 35.4137Q45.8296 40.2566 45.8296 46.3183Q45.8296 52.9252 47.2247 55.058Q48.6199 57.1908 52.4044 57.1908Q53.6552 57.1908 56.0927 56.5493ZM81.845 61.1678L86.8804 60.9753Q86.0144 56.4211 86.0144 50.5839Q86.0144 49.2689 86.1588 45.308Q86.3031 41.347 86.3031 39.8396Q86.3031 34.1628 83.1921 31.8055Q80.081 29.4482 74.3722 29.4482Q68.118 29.4482 63.3072 30.8273L62.762 35.2533Q67.637 34.0025 72.6723 34.0025Q76.9379 34.0025 79.0387 35.3174Q81.1394 36.6324 81.1394 40.5773Q81.1394 41.5715 81.0432 42.3413Q69.7217 42.5016 65.5523 45.5004Q61.3828 48.4992 61.3828 53.4383Q61.3828 57.4474 64.0449 59.6123Q66.7069 61.7771 70.3952 61.7771Q77.1945 61.7771 81.1394 58.185L81.4602 58.185Q81.4602 59.5962 81.845 61.1678ZM128.571 60.9753L134.376 60.9753Q133.927 54.0156 133.927 46.3183Q133.927 36.6003 134.312 29.8972L127.897 30.7632Q129.02 37.0493 129.02 46.3183Q129.02 54.5609 128.571 60.9753ZM81.0432 45.9975Q81.0432 49.8783 81.2036 54.7533Q78.0605 57.3832 72.7685 57.3832Q66.6106 57.3832 66.6106 53.0214Q66.6106 48.4992 71.8705 46.8956Q75.0136 45.9975 81.0432 45.9975Z" />
      </g>
    </g>
  </g>
</svg>